<svg width="375" height="812" viewBox="0 0 375 812" fill="none" xmlns="http://www.w3.org/2000/svg">
<g clip-path="url(#clip0_2832_2974)">
<rect width="375" height="812" fill="url(#paint0_linear_2832_2974)"/>
<g clip-path="url(#clip1_2832_2974)">
<path opacity="0.3" d="M-0.000396729 426C0.547394 427.621 -0.432861 451.889 -0.000396729 453.534C5.88104 475.431 24.275 494.497 21.2766 514.934C21.2766 514.934 21.2766 514.957 21.2766 514.979C19.2585 528.931 29.897 539.868 40.449 549.915C40.4778 549.413 40.449 548.91 40.3913 548.408C40.0453 546.285 38.7191 544.275 38.8633 542.152C38.9498 540.896 39.5264 539.708 39.7282 538.475C40.0742 536.261 39.1805 534.068 39.0651 531.854C39.0363 531.26 39.0651 530.666 39.3534 530.118C39.4399 529.981 39.5264 529.867 39.6129 529.753C40.1895 529.136 41.1409 528.748 42.1212 528.657C43.2744 528.566 44.4565 528.817 45.5232 529.182C46.9071 529.662 48.2909 530.621 48.2909 531.739C48.2909 531.876 48.2909 532.013 48.2044 532.173C48.0891 532.516 47.8296 532.835 47.7431 533.178C47.4548 534.228 48.6945 535.165 48.8675 536.238C49.0982 537.539 47.7431 538.978 48.6657 540.074C51.6929 538.361 53.5958 535.735 55.7292 533.315C58.7276 529.936 62.3314 526.876 66.3965 524.296C66.7137 524.09 67.0885 523.862 67.4633 523.77C67.5786 523.725 67.6939 523.725 67.8093 523.702C68.3282 523.656 68.8472 523.816 69.3085 523.999C70.923 524.615 72.3357 525.529 73.4889 526.602C74.3538 527.424 75.0169 528.611 74.2673 529.502C74.0944 529.707 73.8637 529.867 73.6042 529.981C73.0276 530.255 72.3357 530.415 71.7302 530.666C70.3752 531.237 69.4814 532.31 68.6454 533.338C64.6956 538.156 60.4575 542.837 55.9599 547.335C53.6534 549.641 51.174 552.016 50.3667 554.893C55.8157 551.925 61.4377 548.888 67.9246 547.883C68.6454 547.769 69.395 547.677 70.1157 547.495C70.5482 547.381 70.9806 547.221 71.4419 547.175C71.6726 547.152 71.9032 547.129 72.1339 547.175C73.9502 547.312 75.334 548.956 75.7377 550.463C76.0548 551.696 76.0836 552.975 75.7377 554.231C75.5935 554.733 75.3917 555.281 74.9304 555.646C74.4691 556.012 73.8349 556.195 73.2294 556.354C71.1536 556.925 69.1066 557.473 67.0308 558.044C65.6758 558.409 64.2919 558.798 63.0522 559.414C62.2738 559.802 61.553 560.305 60.6881 560.601C59.3907 561.081 57.9203 561.127 56.5077 561.309C55.1526 561.469 53.8264 561.789 52.5579 562.2C62.245 574.096 66.6272 588.208 71.0383 601.817C74.7574 613.302 80.5812 624.902 91.5945 632.368C92.8342 631.98 94.0163 631.569 95.1407 631.112C97.4472 630.176 100.388 628.578 101.426 626.157C101.685 625.541 101.829 624.879 102.002 624.171C102.118 623.691 102.204 623.189 102.377 622.71C102.55 622.116 102.781 621.568 103.069 621.02C102.608 619.901 102.147 618.759 101.829 617.572C101.656 616.91 101.541 616.248 101.426 615.563C101.195 614.307 100.993 613.119 100.446 612.046C99.9266 611.041 99.1482 610.151 98.2544 609.238C98.1968 609.238 98.1391 609.238 98.0814 609.238C95.5443 609.26 93.0072 608.986 90.4701 608.69C88.7691 608.507 87.0393 608.301 85.396 607.913C84.5599 607.708 83.695 607.457 83.0319 607C82.8589 606.886 82.6859 606.749 82.5994 606.566C82.4264 606.223 82.7147 605.812 83.1183 605.63C83.522 605.447 84.0121 605.424 84.4734 605.401C88.2502 605.333 92.0558 605.995 95.429 607.32C95.9191 607.525 96.4381 607.708 96.9282 607.89C96.0056 606.954 95.1119 605.972 94.4776 604.853C93.6127 603.346 93.2667 601.771 92.9496 600.241C92.7477 599.328 92.5748 598.46 92.2865 597.615C91.9982 596.725 91.4504 595.766 90.7008 594.966C89.3169 595.583 86.3185 596.199 85.6266 596.382C83.5219 596.976 81.3885 597.432 79.1685 597.661C78.3324 597.752 77.4675 597.798 76.6314 597.661C76.3431 597.615 76.026 597.524 75.9683 597.295C75.9683 597.181 75.9972 597.067 76.0548 596.976C76.8332 595.72 78.6496 595.126 80.3794 594.738C81.129 594.555 86.1167 593.779 89.1151 593.779C88.625 593.551 88.106 593.368 87.5294 593.322L87.5871 593.003C86.8087 592.409 86.0302 591.815 85.3383 591.176C82.9742 588.87 80.5812 586.518 79.3127 583.709C79.1397 583.344 79.1109 582.956 79.2262 582.59C79.601 581.517 80.9561 581.586 81.7345 582.065C82.2823 582.408 82.5994 582.887 82.9165 583.367C83.8391 584.737 84.7328 586.107 85.6554 587.454C86.4627 588.687 87.2123 589.966 87.933 591.244C91.681 591.655 93.9298 594.51 94.8236 597.067C95.1407 598.003 95.3425 598.962 95.5443 599.876C95.8615 601.337 96.1498 602.73 96.8705 603.986C97.0435 604.283 97.2454 604.557 97.4472 604.853C97.3607 604.146 97.303 603.415 97.2454 602.707C97.0724 600.515 97.1012 598.323 97.649 596.177C97.8508 595.4 98.1391 594.624 98.8022 594.053C99.5518 594.784 99.7824 595.766 99.8978 596.679C100.1 598.186 100.071 599.716 100.042 601.246C99.9843 603.095 99.8978 604.99 99.1482 606.726C99.3211 606.886 99.4653 607.068 99.6383 607.228C100.849 608.461 102.118 609.717 102.896 611.247C103.559 612.548 103.819 613.918 104.049 615.243C104.165 615.859 104.28 616.499 104.424 617.115C104.539 617.526 104.655 617.937 104.799 618.348C106.01 616.818 107.48 615.403 108.922 614.01C109.844 613.119 110.796 612.206 111.661 611.293C112.554 610.334 113.621 609.078 114.025 607.685C114.227 606.977 114.284 606.201 114.313 605.401C114.342 604.876 114.371 604.328 114.457 603.803C114.486 603.552 114.544 603.301 114.601 603.05C113.736 602.296 112.929 600.835 112.583 600.332C110.219 596.816 108.893 592.866 108.749 588.893C108.691 586.997 108.979 584.919 110.652 583.572C112.554 585.833 113.362 588.55 114.14 591.176C114.89 593.711 115.639 596.268 116.302 598.825C116.302 598.917 116.36 599.031 116.389 599.145C116.764 598.643 117.167 598.163 117.6 597.706C118.176 597.113 118.811 596.588 119.445 596.062C120.195 595.446 120.886 594.875 121.463 594.213C122.155 593.437 122.674 592.546 123.251 591.633C123.712 590.879 124.173 590.103 124.75 589.349C124.692 588.938 124.807 588.459 124.98 588.071C126.018 585.696 127.287 583.39 128.757 581.152C130.083 579.165 131.554 577.27 133.226 575.443C134.581 573.959 136.253 571.562 138.444 570.785C141.529 569.666 140.376 572.566 139.771 573.845C138.675 576.106 137.147 578.184 135.619 580.261C133.312 583.367 130.977 586.495 127.892 589.121L128.123 589.304C127.518 589.829 127.027 590.422 126.595 591.085C126.999 590.833 127.345 590.628 127.518 590.514C131.612 587.819 136.023 585.445 140.722 583.435C141.385 583.161 142.279 582.91 142.798 583.344C143.086 583.595 143.086 583.983 143 584.326C142.74 585.399 141.875 586.312 140.953 587.112C137.925 589.692 133.918 591.381 129.997 593.026C129.161 593.368 125.99 594.784 124.346 594.624C124.144 594.898 123.914 595.195 123.683 595.469C122.991 596.245 122.213 596.907 121.434 597.547C120.829 598.049 120.252 598.528 119.762 599.031C118.436 600.378 117.542 602.045 117.196 603.735C119.906 602.091 126.508 600.652 128.152 600.287C130.314 599.807 132.534 599.465 134.783 599.579C135.158 599.579 135.648 599.693 135.705 599.99C135.734 600.195 135.561 600.355 135.388 600.492C134.523 601.177 133.428 601.588 132.332 601.976C127.979 603.461 122.04 605.264 117.052 605.196C117.052 605.31 117.052 605.424 117.052 605.538C116.994 606.406 116.965 607.297 116.677 608.21C116.158 609.968 114.919 611.475 113.881 612.571C112.987 613.53 112.007 614.466 111.055 615.38C108.432 617.892 105.952 620.289 105.03 623.212C104.885 623.646 104.799 624.102 104.712 624.536C104.539 625.29 104.366 626.066 104.049 626.842C103.502 628.075 102.55 629.24 101.253 630.29C102.925 630.336 104.597 630.587 106.154 630.838L107.221 631.021C110.046 631.523 112.987 632.026 115.697 631.66C115.697 630.884 116.043 629.834 116.101 629.468C116.389 627.847 116.764 626.226 117.369 624.628C118.292 622.093 119.791 619.65 122.097 617.755C122.443 617.481 122.818 617.207 123.279 617.092C123.741 616.978 124.317 617.047 124.606 617.366C124.779 617.572 124.807 617.823 124.807 618.074C124.865 620.632 123.395 623.075 121.78 625.29C120.829 626.591 119.791 627.847 118.926 629.172C118.638 629.605 118.378 630.405 118.003 631.09C119.445 630.61 120.829 629.902 122.242 629.172C122.905 628.829 123.568 628.486 124.26 628.167C125.874 627.413 127.575 626.751 129.219 626.135C129.334 626.089 129.478 626.043 129.593 625.998C129.593 624.399 130.891 622.276 131.525 620.814C132.303 618.965 133.197 617.138 134.149 615.357C134.898 613.918 135.994 612.343 137.925 612.046C137.32 614.832 136.397 617.595 135.186 620.266C134.466 621.842 133.63 623.395 132.534 624.833C134.091 624.171 135.532 623.463 136.859 622.595C137.464 622.207 138.012 621.773 138.589 621.339C139.396 620.723 140.261 620.084 141.212 619.513L141.385 619.695C141.385 619.695 141.414 619.65 141.443 619.627C142.596 617.892 143.605 616.088 144.874 614.398C146.748 611.909 149.4 609.58 152.917 608.827C153.09 608.781 153.321 608.758 153.465 608.872C153.609 608.964 153.58 609.146 153.552 609.283C153.292 610.288 152.6 611.201 151.879 612.046C149.371 615.037 146.373 617.777 143.028 620.221C142.942 620.289 142.682 620.495 142.394 620.723L142.827 621.18C141.991 621.659 141.241 622.23 140.463 622.824C139.857 623.28 139.252 623.737 138.617 624.171C137.435 624.947 136.196 625.609 134.898 626.203C135.158 626.203 135.417 626.203 135.648 626.203C138.79 626.066 141.991 625.952 145.104 626.431C145.739 626.523 146.402 626.683 146.805 627.071C146.921 627.185 147.007 627.322 147.007 627.459C147.007 627.733 146.603 627.893 146.286 628.007C142.394 629.149 138.07 628.623 133.976 628.053C133.14 627.938 132.303 627.824 131.467 627.664C131.121 627.801 130.804 627.916 130.458 628.053C128.873 628.669 127.229 629.309 125.701 630.016C125.038 630.313 124.404 630.656 123.77 630.975C123.683 631.021 123.568 631.067 123.481 631.112C124.721 631.135 126.076 631.341 126.624 631.386C130.891 631.752 135.129 632.345 139.28 633.167C140.376 633.396 141.5 633.624 142.394 634.195C142.596 634.332 142.798 634.515 142.74 634.697C142.711 634.811 142.567 634.903 142.452 634.994C141.299 635.656 139.742 635.588 138.329 635.474C133.976 635.177 129.593 634.857 125.413 633.83C124.663 633.647 121.809 633.099 121.117 632.277C119.877 632.848 118.551 633.327 117.11 633.601C116.014 633.807 114.947 633.898 113.852 633.898C111.459 633.898 109.066 633.464 106.759 633.053L105.722 632.871C102.406 632.3 98.9464 631.934 96.0921 633.167C95.4579 633.396 94.8236 633.624 94.1893 633.852C98.0526 636.113 102.464 637.917 107.596 639.081C128.354 643.831 146.43 633.852 164.709 627.619C172.753 624.879 180.797 622.55 188.984 621.065C188.206 620.198 187.255 619.444 186.274 618.714C184.689 617.526 183.103 616.339 181.517 615.129C181.056 614.763 180.566 614.398 180.335 613.918C180.105 613.416 180.22 612.868 180.335 612.366C180.71 611.133 181.373 609.968 182.325 608.964C183.478 607.708 185.582 606.68 187.312 607.16C187.514 607.228 187.716 607.297 187.918 607.411C188.293 607.616 188.61 607.89 188.956 608.142C189.503 608.553 190.138 608.872 190.743 609.215C195.356 611.863 198.643 615.654 201.612 619.536C202.16 619.49 202.737 619.467 203.284 619.444C203.342 617.184 202.593 614.9 201.901 612.663C200.171 607.091 198.758 601.428 197.72 595.743C197.489 594.533 197.259 593.254 196.307 592.295C195.875 591.861 195.327 591.496 194.952 591.039C194.779 590.833 194.664 590.628 194.606 590.377C194.376 589.326 195.644 588.459 196.855 588.002C198.47 587.386 200.228 587.043 202.016 586.997C202.535 586.997 203.083 586.997 203.544 587.226C203.659 587.271 203.746 587.34 203.832 587.408C204.121 587.637 204.351 587.934 204.524 588.253C206.859 591.952 208.532 595.903 209.483 599.967C210.146 602.867 210.492 605.881 212.366 608.438C213.779 607.753 213.318 605.995 214.182 604.876C214.903 603.963 216.518 603.529 216.806 602.479C216.893 602.136 216.806 601.771 216.921 601.428C216.95 601.291 217.008 601.132 217.065 601.017C217.642 599.99 219.43 599.579 220.929 599.602C222.082 599.602 223.293 599.762 224.273 600.241C225.109 600.652 225.801 601.314 225.974 602.068C226.003 602.205 226.032 602.342 226.032 602.479C226.032 603.072 225.743 603.62 225.398 604.146C224.1 606.109 222.14 607.822 221.304 609.945C220.842 611.133 220.756 612.411 220.179 613.576C219.199 615.563 216.921 616.955 215.509 618.782C215.278 619.056 215.105 619.353 214.932 619.65C218.248 619.924 221.592 620.38 224.994 621.088C247.021 625.541 269.134 638.99 291.708 638.282C291.074 636.821 290.526 635.359 289.632 633.989C288.565 632.368 287.095 630.93 285.567 629.56C284.616 628.715 283.635 627.87 283.116 626.842C282.655 625.952 282.569 624.97 282.367 624.011C281.761 620.951 280.118 618.006 277.696 615.585C276.514 614.398 275.159 613.348 274.092 612.092C273.026 610.836 272.247 609.352 272.507 607.868C277.12 609.032 281.329 611.224 284.529 614.147C286.864 616.27 288.652 618.782 291.276 620.7C292.746 621.796 294.447 622.664 296.119 623.532C295.456 621.796 294.793 620.038 293.64 618.485C291.593 615.677 288.191 613.622 286.144 610.79C283.837 607.594 283.462 603.575 280.522 600.698C279.368 599.556 277.84 598.688 276.687 597.547C275.505 596.428 274.698 594.898 275.275 593.505C279.541 594.281 283.434 596.245 286.144 598.985C288.191 601.063 289.575 603.552 291.967 605.379C293.495 606.543 295.398 607.388 296.984 608.53C301.337 611.681 302.837 616.681 306.729 620.175C306.585 618.28 306.959 616.385 307.911 614.649C309.179 612.32 310.938 610.151 311.861 607.731C312.898 605.036 312.898 602.159 313.562 599.396C314.484 595.629 316.762 592.066 320.02 589.212C321.173 590.422 321.432 591.998 321.317 593.505C321.202 595.012 320.654 596.473 320.366 597.958C319.789 601.017 320.221 604.214 321.605 607.114C322.038 608.027 322.586 608.918 322.73 609.877C322.932 610.996 322.614 612.115 322.326 613.211C321.865 615.015 321.461 616.841 321.577 618.668C321.692 620.769 322.47 622.778 322.845 624.856C322.903 625.198 322.96 625.564 322.989 625.906C330.139 619.627 334.983 611.635 337.145 603.301C343.747 577.887 318.347 554.002 328.698 529.479C330.255 525.78 332.417 522.195 334.781 518.701C333.916 517.925 332.907 517.24 331.667 516.806C330.918 516.555 330.082 516.372 329.217 516.19C328.611 516.075 328.006 515.938 327.4 515.779C326.68 515.596 325.988 515.368 325.324 515.094C323.883 515.368 322.413 515.642 320.885 515.801C320.048 515.893 319.184 515.916 318.319 515.961C316.733 516.03 315.205 516.098 313.821 516.464C312.524 516.783 311.313 517.331 310.102 517.971C310.102 518.016 310.102 518.062 310.102 518.108C309.929 520.117 309.352 522.104 308.805 524.067C308.43 525.392 308.055 526.739 307.421 528.018C307.104 528.68 306.7 529.319 306.094 529.821C305.921 529.958 305.748 530.073 305.518 530.118C305.057 530.21 304.595 529.958 304.393 529.616C304.192 529.273 304.192 528.885 304.22 528.52C304.451 525.529 305.576 522.583 307.507 520.026C307.795 519.638 308.084 519.272 308.343 518.884C307.075 519.523 305.777 520.163 304.307 520.574C302.346 521.145 300.328 521.282 298.368 521.419C297.215 521.51 296.09 521.578 295.023 521.738C293.899 521.898 292.631 522.241 291.564 522.766C292.227 523.907 292.746 526.328 292.948 526.899C293.524 528.588 293.928 530.324 294.043 532.082C294.072 532.767 294.043 533.452 293.841 534.091C293.755 534.297 293.611 534.548 293.322 534.571C293.178 534.571 293.034 534.525 292.919 534.48C291.391 533.772 290.785 532.265 290.439 530.895C290.295 530.278 289.69 526.282 289.92 523.907C289.575 524.273 289.344 524.661 289.229 525.118L288.825 525.049C288.018 525.62 287.21 526.191 286.345 526.67C283.261 528.337 280.089 530.05 276.457 530.826C275.995 530.917 275.505 530.917 275.044 530.803C273.718 530.415 273.919 529.365 274.583 528.794C275.044 528.406 275.707 528.177 276.312 527.972C278.1 527.355 279.887 526.762 281.704 526.145C283.318 525.597 284.99 525.118 286.663 524.661C287.47 521.738 291.247 520.186 294.533 519.706C295.744 519.523 296.955 519.432 298.137 519.363C300.011 519.226 301.77 519.112 303.413 518.633C303.788 518.519 304.163 518.382 304.538 518.245C303.644 518.245 302.721 518.245 301.828 518.245C299.06 518.199 296.292 518.016 293.64 517.4C292.688 517.194 291.708 516.897 291.045 516.327C292.025 515.801 293.265 515.687 294.447 515.687C296.379 515.642 298.281 515.801 300.213 515.961C302.548 516.144 304.912 516.372 307.046 517.126C307.277 517.012 307.507 516.897 307.738 516.783C309.381 515.916 311.082 515.025 313.071 514.546C314.772 514.135 316.502 514.043 318.203 513.952C319.011 513.906 319.789 513.883 320.596 513.792C321.115 513.746 321.634 513.678 322.182 513.587C320.337 512.513 318.693 511.235 317.05 509.979C316.012 509.18 314.945 508.358 313.85 507.604C312.726 506.828 311.197 505.892 309.496 505.458C308.603 505.229 307.651 505.138 306.642 505.047C305.979 504.978 305.287 504.91 304.653 504.818C304.336 504.773 304.019 504.704 303.702 504.636C302.664 505.275 300.79 505.777 300.098 506.006C295.485 507.581 290.411 508.312 285.394 508.106C283.001 507.992 280.435 507.604 278.85 506.166C281.848 504.841 285.308 504.43 288.71 504.019C291.967 503.631 295.225 503.243 298.512 502.946C298.627 502.946 298.771 502.923 298.916 502.9C298.31 502.581 297.734 502.215 297.215 501.827C296.523 501.325 295.917 500.777 295.312 500.252C294.591 499.612 293.928 499.019 293.15 498.516C292.227 497.9 291.16 497.42 290.036 496.895C289.113 496.484 288.162 496.05 287.297 495.525C286.778 495.525 286.172 495.411 285.711 495.251C282.799 494.246 280.003 493.059 277.321 491.689C274.929 490.479 272.651 489.154 270.489 487.716C268.73 486.528 265.847 484.999 265.04 483.218C263.886 480.706 267.433 481.847 268.989 482.418C271.728 483.446 274.237 484.839 276.716 486.232C280.435 488.287 284.183 490.387 287.239 493.059L287.47 492.876C288.075 493.401 288.796 493.812 289.575 494.223C289.286 493.881 289.056 493.584 288.94 493.447C285.884 489.999 283.232 486.323 281.098 482.464C280.81 481.916 280.551 481.185 281.156 480.82C281.502 480.614 281.992 480.66 282.396 480.729C283.722 481.025 284.817 481.779 285.74 482.578C288.738 485.181 290.555 488.469 292.285 491.689C292.659 492.374 294.187 495 293.841 496.278C294.187 496.461 294.533 496.667 294.851 496.872C295.744 497.466 296.523 498.151 297.272 498.813C297.849 499.338 298.397 499.818 299.002 500.252C300.588 501.416 302.606 502.261 304.711 502.649C302.865 500.389 301.568 495.045 301.251 493.721C300.818 491.986 300.559 490.182 300.905 488.446C300.963 488.15 301.136 487.784 301.51 487.761C301.77 487.761 301.972 487.898 302.116 488.058C302.894 488.789 303.327 489.702 303.73 490.593C305.258 494.155 307.046 498.996 306.556 502.9C306.7 502.9 306.844 502.923 306.988 502.946C308.084 503.06 309.179 503.174 310.304 503.448C312.466 503.996 314.254 505.092 315.58 506.006C316.704 506.782 317.829 507.627 318.895 508.449C321.865 510.732 324.661 512.879 328.265 513.838C328.813 513.975 329.361 514.089 329.909 514.203C330.831 514.386 331.811 514.591 332.763 514.911C334.003 515.345 335.127 515.984 336.165 516.783C336.597 516.144 337.059 515.527 337.491 514.911C337.635 514.454 337.808 513.998 337.952 513.564L338.269 512.742C339.134 510.55 339.999 508.289 339.769 506.12C338.788 506.051 337.52 505.709 337.03 505.618C335.012 505.252 332.993 504.818 331.062 504.247C327.948 503.311 325.007 501.941 322.816 499.955C322.499 499.658 322.182 499.338 322.067 498.973C321.951 498.585 322.095 498.151 322.528 497.945C322.787 497.831 323.133 497.831 323.451 497.831C326.68 497.991 329.62 499.338 332.273 500.822C333.83 501.69 335.329 502.603 336.943 503.38C337.462 503.631 338.442 503.928 339.307 504.27C338.817 503.083 338.039 501.964 337.26 500.777C336.886 500.229 336.511 499.658 336.165 499.11C335.329 497.786 334.666 496.393 334.003 495.045C333.945 494.931 333.887 494.84 333.858 494.726C331.869 494.612 329.274 493.401 327.487 492.785C325.238 492.009 323.018 491.187 320.827 490.273C319.097 489.565 317.165 488.561 316.964 487.031C320.423 487.739 323.825 488.698 327.083 489.862C329.015 490.547 330.889 491.346 332.619 492.328C331.927 491.05 331.148 489.839 330.139 488.743C329.678 488.241 329.188 487.761 328.698 487.282C327.977 486.597 327.256 485.866 326.622 485.067L326.881 484.953C326.881 484.953 326.824 484.93 326.795 484.907C324.69 483.857 322.499 482.921 320.481 481.779C317.511 480.112 314.801 477.829 314.138 474.974C314.109 474.837 314.081 474.655 314.225 474.563C314.369 474.472 314.571 474.495 314.744 474.541C315.983 474.837 317.079 475.454 318.088 476.093C321.663 478.331 324.863 480.888 327.66 483.743C327.746 483.834 327.977 484.04 328.236 484.291L328.842 483.994C329.39 484.679 330.053 485.318 330.745 486.003C331.264 486.528 331.811 487.031 332.273 487.579C333.166 488.561 333.887 489.611 334.521 490.684C334.521 490.479 334.521 490.273 334.55 490.09C334.637 487.579 334.752 485.067 335.588 482.647C335.761 482.144 335.992 481.642 336.54 481.345C336.684 481.254 336.857 481.208 337.059 481.231C337.405 481.277 337.578 481.573 337.664 481.847C338.788 485.021 337.779 488.378 336.741 491.575C336.54 492.237 336.309 492.876 336.049 493.516C336.194 493.79 336.338 494.064 336.453 494.338C337.087 495.639 337.75 496.986 338.529 498.242C338.875 498.79 339.221 499.315 339.596 499.841C339.653 499.909 339.711 500 339.74 500.069C339.884 499.087 340.23 498.037 340.316 497.626C341.124 494.292 342.19 491.004 343.574 487.784C343.949 486.939 344.353 486.072 345.102 485.41C345.275 485.25 345.535 485.113 345.765 485.181C345.91 485.227 346.025 485.318 346.111 485.432C346.832 486.391 346.63 487.602 346.4 488.72C345.679 492.123 344.929 495.571 343.286 498.79C342.998 499.361 342.075 501.576 340.98 502.055C341.585 503.083 342.075 504.179 342.335 505.344C342.508 506.211 342.536 507.079 342.45 507.947C342.45 508.084 342.421 508.221 342.392 508.358C349.312 498.836 376.355 465.27 375 453.785L375 750.785H-0.000396729L-0.000396729 453.534V426Z" fill="#245C89"/>
</g>
<path d="M127.192 483.645C127.192 483.645 127.227 483.662 127.293 483.692C127.787 483.929 130.003 485.004 131.602 486.035C133.409 487.202 136.087 488.927 136.909 491.179C137.731 493.432 133.725 494.697 131.354 492.633C128.984 490.569 127.657 490.187 126.238 491.079C124.82 491.972 121.73 494.108 118.926 491.743C116.121 489.379 117.657 489.744 112.947 489.613C108.237 489.482 105.968 488.193 98.9834 489.878C91.9993 491.562 82.3354 496.601 61.8599 497.162C41.3835 497.722 34.8451 493.804 32.7469 490.767C30.6488 487.73 37.5161 492.459 48.852 487.364C60.1879 482.27 67.403 473.948 71.6936 464.982C75.9842 456.015 74.2339 452.464 76.9984 446.137C79.7628 439.811 80.5599 439.016 78.4882 436.175C76.4164 433.333 53.7607 416.34 50.3695 410.283C46.9783 404.226 51.9541 413.625 63.0003 421.252C74.0465 428.88 78.1101 432.437 81.4612 434.647C84.8128 436.856 85.8279 435.723 89.7674 434.392C93.707 433.062 98.7777 430.693 105.123 430.28C111.468 429.867 118.922 426.149 123.265 423.612C127.606 421.074 134.029 414.52 136.591 411.286C139.152 408.053 142.459 403.344 144.615 398.711C146.77 394.078 147.067 389.655 148.69 397.973C150.312 406.291 145.678 421.839 144.538 428.478C143.396 435.117 140.789 443.128 140.272 446.485C139.755 449.842 139.706 451.543 140.814 454.622C141.923 457.701 144.008 459.236 146.099 460.75C148.19 462.265 148.868 464.494 147.862 466.833C146.857 469.171 148.602 471.036 148.365 473.699C148.127 476.361 145.802 474.339 143.836 471.93C141.869 469.52 139.998 470.592 137.338 471.549C134.677 472.507 132.81 476.793 130.254 478.956C127.699 481.119 125.873 482.99 127.193 483.641L127.192 483.645Z" fill="#245C89"/>
<g clip-path="url(#clip2_2832_2974)">
<path opacity="0.5" d="M375 490C374.453 491.621 375.433 515.889 375 517.534C369.119 539.431 350.725 558.497 353.723 578.934C353.723 578.934 353.723 578.957 353.723 578.979C355.742 592.931 345.103 603.868 334.551 613.915C334.522 613.413 334.551 612.91 334.609 612.408C334.955 610.285 336.281 608.275 336.137 606.152C336.05 604.896 335.474 603.708 335.272 602.475C334.926 600.261 335.82 598.068 335.935 595.854C335.964 595.26 335.935 594.666 335.647 594.118C335.56 593.981 335.474 593.867 335.387 593.753C334.81 593.136 333.859 592.748 332.879 592.657C331.726 592.566 330.544 592.817 329.477 593.182C328.093 593.662 326.709 594.621 326.709 595.739C326.709 595.876 326.709 596.013 326.796 596.173C326.911 596.516 327.17 596.835 327.257 597.178C327.545 598.228 326.305 599.165 326.132 600.238C325.902 601.539 327.257 602.978 326.334 604.074C323.307 602.361 321.404 599.735 319.271 597.315C316.272 593.936 312.669 590.876 308.603 588.296C308.286 588.09 307.911 587.862 307.537 587.77C307.421 587.725 307.306 587.725 307.191 587.702C306.672 587.656 306.153 587.816 305.692 587.999C304.077 588.615 302.664 589.529 301.511 590.602C300.646 591.424 299.983 592.611 300.733 593.502C300.906 593.707 301.136 593.867 301.396 593.981C301.972 594.255 302.664 594.415 303.27 594.666C304.625 595.237 305.519 596.31 306.355 597.338C310.304 602.156 314.543 606.837 319.04 611.335C321.347 613.641 323.826 616.016 324.633 618.893C319.184 615.925 313.562 612.888 307.075 611.883C306.355 611.769 305.605 611.677 304.884 611.495C304.452 611.381 304.019 611.221 303.558 611.175C303.327 611.152 303.097 611.129 302.866 611.175C301.05 611.312 299.666 612.956 299.262 614.463C298.945 615.696 298.916 616.975 299.262 618.231C299.406 618.733 299.608 619.281 300.07 619.646C300.531 620.012 301.165 620.195 301.771 620.354C303.846 620.925 305.893 621.473 307.969 622.044C309.324 622.409 310.708 622.798 311.948 623.414C312.726 623.802 313.447 624.305 314.312 624.601C315.609 625.081 317.08 625.127 318.492 625.309C319.847 625.469 321.174 625.789 322.442 626.2C312.755 638.096 308.373 652.208 303.962 665.817C300.243 677.302 294.419 688.902 283.405 696.368C282.166 695.98 280.984 695.569 279.859 695.112C277.553 694.176 274.612 692.578 273.574 690.157C273.315 689.541 273.171 688.879 272.998 688.171C272.882 687.691 272.796 687.189 272.623 686.71C272.45 686.116 272.219 685.568 271.931 685.02C272.392 683.901 272.853 682.759 273.171 681.572C273.344 680.91 273.459 680.248 273.574 679.563C273.805 678.307 274.007 677.119 274.554 676.046C275.073 675.041 275.852 674.151 276.746 673.238C276.803 673.238 276.861 673.238 276.919 673.238C279.456 673.26 281.993 672.986 284.53 672.69C286.231 672.507 287.961 672.301 289.604 671.913C290.44 671.708 291.305 671.457 291.968 671C292.141 670.886 292.314 670.749 292.401 670.566C292.574 670.223 292.285 669.812 291.882 669.63C291.478 669.447 290.988 669.424 290.527 669.401C286.75 669.333 282.944 669.995 279.571 671.32C279.081 671.525 278.562 671.708 278.072 671.89C278.994 670.954 279.888 669.972 280.522 668.853C281.387 667.346 281.733 665.771 282.05 664.241C282.252 663.328 282.425 662.46 282.714 661.615C283.002 660.725 283.55 659.766 284.299 658.966C285.683 659.583 288.681 660.199 289.373 660.382C291.478 660.976 293.612 661.432 295.831 661.661C296.668 661.752 297.532 661.798 298.369 661.661C298.657 661.615 298.974 661.524 299.032 661.295C299.032 661.181 299.003 661.067 298.945 660.976C298.167 659.72 296.35 659.126 294.621 658.738C293.871 658.555 288.883 657.779 285.885 657.779C286.375 657.551 286.894 657.368 287.471 657.322L287.413 657.003C288.191 656.409 288.97 655.815 289.662 655.176C292.026 652.87 294.419 650.518 295.687 647.709C295.86 647.344 295.889 646.956 295.774 646.59C295.399 645.517 294.044 645.586 293.266 646.065C292.718 646.408 292.401 646.887 292.083 647.367C291.161 648.737 290.267 650.107 289.345 651.454C288.537 652.687 287.788 653.966 287.067 655.244C283.319 655.655 281.07 658.51 280.176 661.067C279.859 662.003 279.657 662.962 279.456 663.876C279.139 665.337 278.85 666.73 278.129 667.986C277.956 668.283 277.755 668.557 277.553 668.853C277.639 668.146 277.697 667.415 277.755 666.707C277.928 664.515 277.899 662.323 277.351 660.177C277.149 659.4 276.861 658.624 276.198 658.053C275.448 658.784 275.218 659.766 275.102 660.679C274.9 662.186 274.929 663.716 274.958 665.246C275.016 667.095 275.102 668.99 275.852 670.726C275.679 670.886 275.535 671.068 275.362 671.228C274.151 672.461 272.882 673.717 272.104 675.247C271.441 676.548 271.181 677.918 270.951 679.243C270.835 679.859 270.72 680.499 270.576 681.115C270.461 681.526 270.345 681.937 270.201 682.348C268.99 680.818 267.52 679.403 266.078 678.01C265.156 677.119 264.204 676.206 263.339 675.293C262.446 674.334 261.379 673.078 260.975 671.685C260.773 670.977 260.716 670.201 260.687 669.401C260.658 668.876 260.629 668.328 260.543 667.803C260.514 667.552 260.456 667.301 260.399 667.05C261.264 666.296 262.071 664.835 262.417 664.332C264.781 660.816 266.107 656.866 266.251 652.893C266.309 650.997 266.021 648.919 264.348 647.572C262.446 649.833 261.638 652.55 260.86 655.176C260.11 657.711 259.361 660.268 258.698 662.825C258.698 662.917 258.64 663.031 258.611 663.145C258.236 662.643 257.833 662.163 257.4 661.706C256.824 661.113 256.189 660.588 255.555 660.062C254.805 659.446 254.114 658.875 253.537 658.213C252.845 657.437 252.326 656.546 251.749 655.633C251.288 654.879 250.827 654.103 250.25 653.349C250.308 652.938 250.193 652.459 250.02 652.071C248.982 649.696 247.713 647.39 246.243 645.152C244.917 643.165 243.446 641.27 241.774 639.443C240.419 637.959 238.747 635.562 236.556 634.785C233.471 633.666 234.624 636.566 235.229 637.845C236.325 640.106 237.853 642.184 239.381 644.261C241.688 647.367 244.023 650.495 247.108 653.121L246.877 653.304C247.482 653.829 247.973 654.422 248.405 655.085C248.001 654.833 247.655 654.628 247.482 654.514C243.388 651.819 238.977 649.445 234.278 647.435C233.615 647.161 232.721 646.91 232.202 647.344C231.914 647.595 231.914 647.983 232 648.326C232.26 649.399 233.125 650.312 234.047 651.112C237.075 653.692 241.082 655.381 245.003 657.026C245.839 657.368 249.01 658.784 250.654 658.624C250.856 658.898 251.086 659.195 251.317 659.469C252.009 660.245 252.787 660.907 253.566 661.547C254.171 662.049 254.748 662.528 255.238 663.031C256.564 664.378 257.458 666.045 257.804 667.735C255.094 666.091 248.492 664.652 246.848 664.287C244.686 663.807 242.466 663.465 240.217 663.579C239.842 663.579 239.352 663.693 239.295 663.99C239.266 664.195 239.439 664.355 239.612 664.492C240.477 665.177 241.572 665.588 242.668 665.976C247.021 667.461 252.96 669.264 257.948 669.196C257.948 669.31 257.948 669.424 257.948 669.538C258.006 670.406 258.035 671.297 258.323 672.21C258.842 673.968 260.081 675.475 261.119 676.571C262.013 677.53 262.993 678.466 263.945 679.38C266.568 681.892 269.048 684.289 269.97 687.212C270.115 687.646 270.201 688.102 270.288 688.536C270.461 689.29 270.634 690.066 270.951 690.842C271.498 692.075 272.45 693.24 273.747 694.29C272.075 694.336 270.403 694.587 268.846 694.838L267.779 695.021C264.954 695.523 262.013 696.026 259.303 695.66C259.303 694.884 258.957 693.834 258.899 693.468C258.611 691.847 258.236 690.226 257.631 688.628C256.708 686.093 255.209 683.65 252.903 681.755C252.557 681.481 252.182 681.207 251.721 681.092C251.259 680.978 250.683 681.047 250.394 681.366C250.221 681.572 250.193 681.823 250.193 682.074C250.135 684.632 251.605 687.075 253.22 689.29C254.171 690.591 255.209 691.847 256.074 693.172C256.362 693.605 256.622 694.405 256.997 695.09C255.555 694.61 254.171 693.902 252.758 693.172C252.095 692.829 251.432 692.486 250.74 692.167C249.126 691.413 247.425 690.751 245.781 690.135C245.666 690.089 245.522 690.043 245.407 689.998C245.407 688.399 244.109 686.276 243.475 684.814C242.697 682.965 241.803 681.138 240.851 679.357C240.102 677.918 239.006 676.343 237.075 676.046C237.68 678.832 238.603 681.595 239.814 684.266C240.534 685.842 241.37 687.395 242.466 688.833C240.909 688.171 239.468 687.463 238.141 686.595C237.536 686.207 236.988 685.773 236.411 685.339C235.604 684.723 234.739 684.084 233.788 683.513L233.615 683.695C233.615 683.695 233.586 683.65 233.557 683.627C232.404 681.892 231.395 680.088 230.126 678.398C228.252 675.909 225.6 673.58 222.083 672.827C221.91 672.781 221.679 672.758 221.535 672.872C221.391 672.964 221.42 673.146 221.448 673.283C221.708 674.288 222.4 675.201 223.121 676.046C225.629 679.037 228.627 681.777 231.972 684.221C232.058 684.289 232.318 684.495 232.606 684.723L232.173 685.18C233.009 685.659 233.759 686.23 234.537 686.824C235.143 687.28 235.748 687.737 236.383 688.171C237.565 688.947 238.804 689.609 240.102 690.203C239.842 690.203 239.583 690.203 239.352 690.203C236.21 690.066 233.009 689.952 229.896 690.431C229.261 690.523 228.598 690.683 228.195 691.071C228.079 691.185 227.993 691.322 227.993 691.459C227.993 691.733 228.397 691.893 228.714 692.007C232.606 693.149 236.93 692.623 241.024 692.053C241.86 691.938 242.697 691.824 243.533 691.664C243.879 691.801 244.196 691.916 244.542 692.053C246.127 692.669 247.771 693.309 249.299 694.016C249.962 694.313 250.596 694.656 251.23 694.975C251.317 695.021 251.432 695.067 251.519 695.112C250.279 695.135 248.924 695.341 248.376 695.386C244.109 695.752 239.871 696.345 235.72 697.167C234.624 697.396 233.5 697.624 232.606 698.195C232.404 698.332 232.202 698.515 232.26 698.697C232.289 698.811 232.433 698.903 232.548 698.994C233.701 699.656 235.258 699.588 236.671 699.474C241.024 699.177 245.407 698.857 249.587 697.83C250.337 697.647 253.191 697.099 253.883 696.277C255.123 696.848 256.449 697.327 257.89 697.601C258.986 697.807 260.053 697.898 261.148 697.898C263.541 697.898 265.934 697.464 268.241 697.053L269.278 696.871C272.594 696.3 276.054 695.934 278.908 697.167C279.542 697.396 280.176 697.624 280.811 697.852C276.947 700.113 272.536 701.917 267.404 703.081C246.646 707.831 228.57 697.852 210.291 691.619C202.247 688.879 194.203 686.55 186.016 685.065C186.794 684.198 187.745 683.444 188.726 682.714C190.311 681.526 191.897 680.339 193.483 679.129C193.944 678.763 194.434 678.398 194.665 677.918C194.895 677.416 194.78 676.868 194.665 676.366C194.29 675.133 193.627 673.968 192.675 672.964C191.522 671.708 189.418 670.68 187.688 671.16C187.486 671.228 187.284 671.297 187.082 671.411C186.707 671.616 186.39 671.89 186.044 672.142C185.497 672.553 184.862 672.872 184.257 673.215C179.644 675.863 176.357 679.654 173.388 683.536C172.84 683.49 172.263 683.467 171.716 683.444C171.658 681.184 172.407 678.9 173.099 676.663C174.829 671.091 176.242 665.428 177.28 659.743C177.511 658.533 177.741 657.254 178.693 656.295C179.125 655.861 179.673 655.496 180.048 655.039C180.221 654.833 180.336 654.628 180.394 654.377C180.624 653.326 179.356 652.459 178.145 652.002C176.53 651.386 174.772 651.043 172.984 650.997C172.465 650.997 171.917 650.997 171.456 651.226C171.341 651.271 171.254 651.34 171.168 651.408C170.879 651.637 170.649 651.934 170.476 652.253C168.141 655.952 166.468 659.903 165.517 663.967C164.854 666.867 164.508 669.881 162.634 672.438C161.221 671.753 161.682 669.995 160.818 668.876C160.097 667.963 158.482 667.529 158.194 666.479C158.107 666.136 158.194 665.771 158.079 665.428C158.05 665.291 157.992 665.132 157.935 665.017C157.358 663.99 155.57 663.579 154.071 663.602C152.918 663.602 151.707 663.762 150.727 664.241C149.891 664.652 149.199 665.314 149.026 666.068C148.997 666.205 148.968 666.342 148.968 666.479C148.968 667.072 149.257 667.62 149.602 668.146C150.9 670.109 152.86 671.822 153.696 673.945C154.158 675.133 154.244 676.411 154.821 677.576C155.801 679.563 158.079 680.955 159.491 682.782C159.722 683.056 159.895 683.353 160.068 683.65C156.752 683.924 153.408 684.38 150.006 685.088C127.979 689.541 105.866 702.99 83.292 702.282C83.9263 700.821 84.4741 699.359 85.3678 697.989C86.4346 696.368 87.9049 694.93 89.433 693.56C90.3844 692.715 91.3646 691.87 91.8836 690.842C92.3448 689.952 92.4313 688.97 92.6332 688.011C93.2386 684.951 94.8819 682.006 97.3037 679.585C98.4858 678.398 99.8408 677.348 100.908 676.092C101.974 674.836 102.753 673.352 102.493 671.868C97.8803 673.032 93.6711 675.224 90.4709 678.147C88.1356 680.27 86.3481 682.782 83.7245 684.7C82.2541 685.796 80.5531 686.664 78.8809 687.532C79.544 685.796 80.2071 684.038 81.3604 682.485C83.4073 679.677 86.8094 677.622 88.8563 674.79C91.1628 671.594 91.5376 667.575 94.4783 664.698C95.6315 663.556 97.1596 662.688 98.3128 661.547C99.4948 660.428 100.302 658.898 99.7255 657.505C95.4586 658.281 91.5664 660.245 88.8563 662.985C86.8094 665.063 85.4255 667.552 83.0325 669.379C81.5045 670.543 79.6017 671.388 78.016 672.53C73.6626 675.681 72.1634 680.681 68.2713 684.175C68.4154 682.28 68.0406 680.385 67.0892 678.649C65.8207 676.32 64.062 674.151 63.1394 671.731C62.1015 669.036 62.1015 666.159 61.4384 663.396C60.5158 659.629 58.2382 656.066 54.9803 653.212C53.8271 654.422 53.5676 655.998 53.683 657.505C53.7983 659.012 54.3461 660.473 54.6344 661.958C55.211 665.017 54.7785 668.214 53.3947 671.114C52.9622 672.027 52.4144 672.918 52.2703 673.877C52.0684 674.996 52.3856 676.115 52.6739 677.211C53.1352 679.015 53.5388 680.841 53.4235 682.668C53.3082 684.769 52.5297 686.778 52.1549 688.856C52.0973 689.198 52.0396 689.564 52.0108 689.906C44.8608 683.627 40.0172 675.635 37.8549 667.301C31.2527 641.887 56.6525 618.002 46.3023 593.479C44.7455 589.78 42.5832 586.195 40.2191 582.701C41.084 581.925 42.093 581.24 43.3328 580.806C44.0824 580.555 44.9185 580.372 45.7834 580.19C46.3888 580.075 46.9943 579.938 47.5997 579.779C48.3205 579.596 49.0124 579.368 49.6755 579.094C51.117 579.368 52.5874 579.642 54.1154 579.801C54.9515 579.893 55.8164 579.916 56.6813 579.961C58.267 580.03 59.7951 580.098 61.1789 580.464C62.4763 580.783 63.6872 581.331 64.8981 581.971C64.8981 582.016 64.8981 582.062 64.8981 582.108C65.0711 584.117 65.6477 586.104 66.1955 588.067C66.5703 589.392 66.9451 590.739 67.5793 592.018C67.8965 592.68 68.3001 593.319 68.9055 593.821C69.0785 593.958 69.2515 594.073 69.4822 594.118C69.9434 594.21 70.4047 593.958 70.6066 593.616C70.8084 593.273 70.8084 592.885 70.7795 592.52C70.5489 589.529 69.4245 586.583 67.4928 584.026C67.2045 583.638 66.9162 583.272 66.6568 582.884C67.9253 583.523 69.2227 584.163 70.693 584.574C72.6535 585.145 74.6717 585.282 76.6321 585.419C77.7854 585.51 78.9098 585.578 79.9765 585.738C81.1009 585.898 82.3694 586.241 83.4362 586.766C82.7731 587.907 82.2541 590.328 82.0523 590.899C81.4757 592.588 81.0721 594.324 80.9567 596.082C80.9279 596.767 80.9567 597.452 81.1586 598.091C81.2451 598.297 81.3892 598.548 81.6775 598.571C81.8217 598.571 81.9658 598.525 82.0811 598.48C83.6092 597.772 84.2146 596.265 84.5606 594.895C84.7047 594.278 85.3102 590.282 85.0795 587.907C85.4255 588.273 85.6561 588.661 85.7715 589.118L86.1751 589.049C86.9823 589.62 87.7896 590.191 88.6545 590.67C91.7394 592.337 94.9108 594.05 98.5434 594.826C99.0047 594.917 99.4948 594.917 99.9561 594.803C101.282 594.415 101.081 593.365 100.417 592.794C99.9561 592.406 99.293 592.177 98.6876 591.972C96.9001 591.355 95.1126 590.762 93.2963 590.145C91.6817 589.597 90.0096 589.118 88.3374 588.661C87.5301 585.738 83.7533 584.186 80.4666 583.706C79.2557 583.523 78.0449 583.432 76.8628 583.363C74.9888 583.226 73.2301 583.112 71.5868 582.633C71.212 582.519 70.8372 582.382 70.4624 582.245C71.3562 582.245 72.2787 582.245 73.1725 582.245C75.9402 582.199 78.708 582.016 81.3604 581.4C82.3118 581.194 83.292 580.897 83.9551 580.327C82.9749 579.801 81.7352 579.687 80.5531 579.687C78.6215 579.642 76.7187 579.801 74.787 579.961C72.4517 580.144 70.0876 580.372 67.9541 581.126C67.7235 581.012 67.4928 580.897 67.2622 580.783C65.6189 579.916 63.9178 579.025 61.9285 578.546C60.2275 578.135 58.4977 578.043 56.7967 577.952C55.9894 577.906 55.211 577.883 54.4037 577.792C53.8848 577.746 53.3658 577.678 52.818 577.587C54.6632 576.513 56.3066 575.235 57.9499 573.979C58.9878 573.18 60.0545 572.358 61.1501 571.604C62.2745 570.828 63.8025 569.892 65.5035 569.458C66.3973 569.229 67.3487 569.138 68.3578 569.047C69.0209 568.978 69.7128 568.91 70.3471 568.818C70.6642 568.773 70.9813 568.704 71.2985 568.636C72.3364 569.275 74.2104 569.777 74.9023 570.006C79.5152 571.581 84.5894 572.312 89.6059 572.106C91.9989 571.992 94.5648 571.604 96.1505 570.166C93.1521 568.841 89.6924 568.43 86.2904 568.019C83.0326 567.631 79.7747 567.243 76.488 566.946C76.3727 566.946 76.2285 566.923 76.0844 566.9C76.6898 566.581 77.2664 566.215 77.7854 565.827C78.4773 565.325 79.0827 564.777 79.6882 564.252C80.409 563.612 81.0721 563.019 81.8505 562.516C82.7731 561.9 83.8398 561.42 84.9642 560.895C85.8868 560.484 86.8382 560.05 87.7031 559.525C88.2221 559.525 88.8275 559.411 89.2888 559.251C92.2007 558.246 94.9973 557.059 97.6785 555.689C100.071 554.479 102.349 553.154 104.511 551.716C106.27 550.528 109.153 548.999 109.96 547.218C111.114 544.706 107.567 545.847 106.011 546.418C103.272 547.446 100.763 548.839 98.284 550.232C94.5648 552.287 90.8168 554.387 87.7608 557.059L87.5301 556.876C86.9247 557.401 86.2039 557.812 85.4255 558.223C85.7138 557.881 85.9444 557.584 86.0598 557.447C89.1158 553.999 91.7682 550.323 93.9017 546.464C94.19 545.916 94.4495 545.185 93.844 544.82C93.4981 544.614 93.0079 544.66 92.6043 544.729C91.2781 545.025 90.1825 545.779 89.26 546.578C86.2616 549.181 84.4453 552.469 82.7154 555.689C82.3406 556.374 80.8126 559 81.1586 560.278C80.8126 560.461 80.4666 560.667 80.1495 560.872C79.2557 561.466 78.4773 562.151 77.7277 562.813C77.1511 563.338 76.6033 563.818 75.9979 564.252C74.4122 565.416 72.3941 566.261 70.2894 566.649C72.1346 564.389 73.432 559.045 73.7491 557.721C74.1815 555.986 74.441 554.182 74.0951 552.446C74.0374 552.15 73.8644 551.784 73.4896 551.761C73.2301 551.761 73.0283 551.898 72.8842 552.058C72.1057 552.789 71.6733 553.702 71.2697 554.593C69.7416 558.155 67.9541 562.996 68.4443 566.9C68.3001 566.9 68.1559 566.923 68.0118 566.946C66.9162 567.06 65.8207 567.174 64.6963 567.448C62.534 567.996 60.7465 569.092 59.4203 570.006C58.2959 570.782 57.1715 571.627 56.1047 572.449C53.1352 574.732 50.3386 576.879 46.7348 577.838C46.187 577.975 45.6392 578.089 45.0914 578.203C44.1689 578.386 43.1886 578.591 42.2372 578.911C40.9975 579.345 39.8731 579.984 38.8352 580.783C38.4027 580.144 37.9414 579.527 37.509 578.911C37.3648 578.454 37.1918 577.998 37.0477 577.564L36.7306 576.742C35.8656 574.55 35.0007 572.289 35.2314 570.12C36.2116 570.051 37.4801 569.709 37.9703 569.618C39.9884 569.252 42.0066 568.818 43.9382 568.247C47.0519 567.311 49.9926 565.941 52.1838 563.955C52.5009 563.658 52.818 563.338 52.9334 562.973C53.0487 562.585 52.9045 562.151 52.4721 561.945C52.2126 561.831 51.8666 561.831 51.5495 561.831C48.3205 561.991 45.3797 563.338 42.7273 564.822C41.1705 565.69 39.6713 566.603 38.0568 567.38C37.5378 567.631 36.5576 567.928 35.6926 568.27C36.1828 567.083 36.9612 565.964 37.7396 564.777C38.1144 564.229 38.4892 563.658 38.8352 563.11C39.6713 561.786 40.3344 560.393 40.9975 559.045C41.0551 558.931 41.1128 558.84 41.1416 558.726C43.131 558.612 45.7257 557.401 47.5132 556.785C49.762 556.009 51.982 555.187 54.1731 554.273C55.9029 553.565 57.8346 552.561 58.0364 551.031C54.5767 551.739 51.1747 552.698 47.9168 553.862C45.9852 554.547 44.1112 555.346 42.3814 556.328C43.0733 555.05 43.8517 553.839 44.8608 552.743C45.3221 552.241 45.8122 551.761 46.3023 551.282C47.0231 550.597 47.7439 549.866 48.3781 549.067L48.1187 548.953C48.1187 548.953 48.1763 548.93 48.2051 548.907C50.3098 547.857 52.5009 546.921 54.5191 545.779C57.4886 544.112 60.1987 541.829 60.8618 538.974C60.8906 538.837 60.9195 538.655 60.7753 538.563C60.6311 538.472 60.4293 538.495 60.2563 538.541C59.0166 538.837 57.9211 539.454 56.912 540.093C53.337 542.331 50.1368 544.888 47.3402 547.743C47.2537 547.834 47.0231 548.04 46.7636 548.291L46.1582 547.994C45.6104 548.679 44.9473 549.318 44.2553 550.003C43.7364 550.528 43.1886 551.031 42.7273 551.579C41.8336 552.561 41.1128 553.611 40.4785 554.684C40.4785 554.479 40.4785 554.273 40.4497 554.09C40.3632 551.579 40.2479 549.067 39.4118 546.647C39.2388 546.144 39.0082 545.642 38.4604 545.345C38.3162 545.254 38.1432 545.208 37.9414 545.231C37.5955 545.277 37.4225 545.573 37.336 545.847C36.2116 549.021 37.2207 552.378 38.2586 555.575C38.4604 556.237 38.691 556.876 38.9505 557.516C38.8064 557.79 38.6622 558.064 38.5469 558.338C37.9126 559.639 37.2495 560.986 36.4711 562.242C36.1251 562.79 35.7791 563.315 35.4043 563.841C35.3467 563.909 35.289 564 35.2602 564.069C35.116 563.087 34.7701 562.037 34.6836 561.626C33.8763 558.292 32.8096 555.004 31.4257 551.784C31.0509 550.939 30.6473 550.072 29.8977 549.41C29.7247 549.25 29.4652 549.113 29.2346 549.181C29.0904 549.227 28.9751 549.318 28.8886 549.432C28.1679 550.391 28.3697 551.602 28.6003 552.72C29.3211 556.123 30.0707 559.571 31.714 562.79C32.0023 563.361 32.9249 565.576 34.0205 566.055C33.415 567.083 32.9249 568.179 32.6654 569.344C32.4924 570.211 32.4636 571.079 32.5501 571.947C32.5501 572.084 32.5789 572.221 32.6078 572.358C25.6884 562.836 -1.3547 529.27 0.000344358 517.785L0.000329815 814.785H375L375 517.534V490Z" fill="#3E9DEA"/>
</g>
</g>
<defs>
<linearGradient id="paint0_linear_2832_2974" x1="187.5" y1="0" x2="187.5" y2="812" gradientUnits="userSpaceOnUse">
<stop stop-color="#3E9DEA"/>
<stop offset="1" stop-color="#245C89"/>
</linearGradient>
<clipPath id="clip0_2832_2974">
<rect width="375" height="812" fill="white"/>
</clipPath>
<clipPath id="clip1_2832_2974">
<rect width="375" height="297" fill="white" transform="matrix(-1 0 0 1 375 461)"/>
</clipPath>
<clipPath id="clip2_2832_2974">
<rect width="375" height="297" fill="white" transform="translate(0 525)"/>
</clipPath>
</defs>
</svg>
