<svg preserveAspectRatio="none" width="100%" height="100%" overflow="visible" style="display: block;" viewBox="0 0 249 215" fill="none" xmlns="http://www.w3.org/2000/svg">
<path id="Vector" d="M248.925 0C248.561 1.0732 249.212 17.1382 248.925 18.2266C245.021 32.7223 232.813 45.3437 234.803 58.8721C234.803 58.8721 234.803 58.8872 234.803 58.9023C236.142 68.1379 229.081 75.3782 222.078 82.029C222.059 81.6965 222.078 81.3639 222.116 81.0314C222.346 79.6257 223.226 78.2955 223.13 76.8898C223.073 76.0584 222.69 75.2724 222.556 74.4562C222.327 72.99 222.92 71.5389 222.996 70.0727C223.015 69.6797 222.996 69.2867 222.805 68.9239C222.748 68.8332 222.69 68.7576 222.633 68.6821C222.25 68.2739 221.619 68.017 220.968 67.9565C220.203 67.896 219.418 68.0623 218.71 68.3042C217.792 68.6216 216.873 69.2564 216.873 69.9971C216.873 70.0878 216.873 70.1785 216.93 70.2843C217.007 70.511 217.179 70.7226 217.237 70.9494C217.428 71.6447 216.605 72.2644 216.49 72.9749C216.337 73.8364 217.237 74.7887 216.624 75.5143C214.615 74.3806 213.352 72.6423 211.936 71.0401C209.946 68.803 207.554 66.7775 204.856 65.0694C204.646 64.9334 204.397 64.7823 204.148 64.7218C204.072 64.6916 203.995 64.6916 203.918 64.6764C203.574 64.6462 203.23 64.752 202.923 64.8729C201.852 65.2811 200.914 65.8857 200.149 66.5961C199.575 67.1403 199.135 67.9263 199.632 68.5158C199.747 68.6518 199.9 68.7576 200.072 68.8332C200.455 69.0146 200.914 69.1204 201.316 69.2867C202.215 69.6646 202.809 70.375 203.364 71.0552C205.985 74.2446 208.798 77.3432 211.783 80.321C213.314 81.8476 214.96 83.4196 215.495 85.3242C211.879 83.3592 208.147 81.3488 203.842 80.6837C203.364 80.6082 202.866 80.5477 202.388 80.4268C202.101 80.3512 201.814 80.2454 201.507 80.2152C201.354 80.2001 201.201 80.1849 201.048 80.2152C199.843 80.3059 198.924 81.3942 198.656 82.3918C198.446 83.208 198.427 84.0545 198.656 84.8859C198.752 85.2184 198.886 85.5812 199.192 85.823C199.498 86.0649 199.919 86.1858 200.321 86.2916C201.699 86.6695 203.057 87.0323 204.435 87.4101C205.334 87.652 206.253 87.9089 207.076 88.3171C207.592 88.574 208.071 88.9066 208.645 89.1031C209.506 89.4205 210.482 89.4507 211.419 89.5717C212.319 89.6775 213.199 89.8891 214.041 90.1612C207.612 98.0363 204.703 107.378 201.775 116.387C199.307 123.99 195.442 131.668 188.132 136.611C187.309 136.354 186.525 136.082 185.778 135.78C184.247 135.16 182.296 134.102 181.607 132.5C181.435 132.092 181.339 131.653 181.224 131.185C181.148 130.867 181.09 130.535 180.975 130.217C180.861 129.824 180.707 129.461 180.516 129.099C180.822 128.358 181.128 127.602 181.339 126.816C181.454 126.378 181.53 125.94 181.607 125.486C181.76 124.655 181.894 123.869 182.257 123.158C182.602 122.493 183.118 121.904 183.712 121.299C183.75 121.299 183.788 121.299 183.826 121.299C185.51 121.314 187.194 121.133 188.878 120.936C190.007 120.815 191.155 120.679 192.246 120.422C192.801 120.286 193.375 120.12 193.815 119.818C193.93 119.742 194.045 119.651 194.102 119.531C194.217 119.304 194.026 119.032 193.758 118.911C193.49 118.79 193.164 118.775 192.858 118.76C190.352 118.714 187.826 119.153 185.587 120.029C185.262 120.165 184.917 120.286 184.592 120.407C185.204 119.788 185.797 119.138 186.218 118.397C186.792 117.399 187.022 116.356 187.233 115.344C187.367 114.739 187.481 114.165 187.673 113.605C187.864 113.016 188.228 112.381 188.725 111.852C189.644 112.26 191.634 112.668 192.093 112.789C193.49 113.182 194.906 113.484 196.379 113.636C196.934 113.696 197.508 113.726 198.063 113.636C198.254 113.605 198.465 113.545 198.503 113.394C198.503 113.318 198.484 113.243 198.446 113.182C197.929 112.351 196.724 111.958 195.576 111.701C195.078 111.58 191.768 111.066 189.778 111.066C190.103 110.915 190.447 110.794 190.83 110.764L190.792 110.552C191.308 110.159 191.825 109.766 192.284 109.343C193.853 107.816 195.442 106.259 196.284 104.4C196.398 104.158 196.417 103.901 196.341 103.659C196.092 102.949 195.193 102.994 194.676 103.312C194.313 103.538 194.102 103.856 193.892 104.173C193.279 105.08 192.686 105.987 192.074 106.879C191.538 107.695 191.04 108.542 190.562 109.388C188.075 109.66 186.582 111.55 185.989 113.243C185.778 113.862 185.644 114.497 185.51 115.102C185.3 116.069 185.109 116.991 184.63 117.823C184.515 118.019 184.381 118.2 184.247 118.397C184.305 117.928 184.343 117.445 184.381 116.976C184.496 115.525 184.477 114.074 184.114 112.653C183.98 112.139 183.788 111.625 183.348 111.247C182.851 111.731 182.698 112.381 182.621 112.986C182.487 113.983 182.506 114.996 182.525 116.009C182.564 117.233 182.621 118.488 183.118 119.636C183.004 119.742 182.908 119.863 182.793 119.969C181.99 120.785 181.148 121.616 180.631 122.629C180.191 123.491 180.019 124.398 179.866 125.274C179.789 125.683 179.712 126.106 179.617 126.514C179.54 126.786 179.464 127.058 179.368 127.33C178.564 126.317 177.588 125.38 176.632 124.458C176.019 123.869 175.388 123.264 174.814 122.659C174.221 122.025 173.513 121.193 173.245 120.271C173.111 119.803 173.072 119.289 173.053 118.76C173.034 118.412 173.015 118.049 172.958 117.702C172.939 117.535 172.9 117.369 172.862 117.203C173.436 116.704 173.972 115.737 174.201 115.404C175.771 113.076 176.651 110.461 176.746 107.831C176.785 106.577 176.593 105.201 175.484 104.309C174.221 105.806 173.685 107.604 173.168 109.343C172.671 111.021 172.173 112.713 171.733 114.406C171.733 114.467 171.695 114.542 171.676 114.618C171.427 114.285 171.159 113.968 170.872 113.666C170.489 113.273 170.068 112.925 169.647 112.577C169.15 112.169 168.691 111.791 168.308 111.353C167.849 110.839 167.504 110.25 167.121 109.645C166.815 109.146 166.509 108.632 166.126 108.133C166.165 107.861 166.088 107.544 165.973 107.287C165.284 105.715 164.442 104.188 163.467 102.707C162.586 101.392 161.61 100.137 160.501 98.9281C159.601 97.9456 158.491 96.3585 157.037 95.8446C154.99 95.1039 155.755 97.0236 156.157 97.8701C156.884 99.3665 157.898 100.742 158.912 102.118C160.443 104.173 161.993 106.244 164.041 107.982L163.888 108.103C164.289 108.451 164.615 108.844 164.902 109.282C164.634 109.116 164.404 108.98 164.289 108.904C161.572 107.121 158.645 105.549 155.525 104.219C155.085 104.037 154.492 103.871 154.148 104.158C153.956 104.324 153.956 104.581 154.014 104.808C154.186 105.518 154.76 106.123 155.372 106.652C157.382 108.36 160.041 109.479 162.644 110.567C163.199 110.794 165.304 111.731 166.394 111.625C166.528 111.807 166.681 112.003 166.834 112.184C167.294 112.698 167.81 113.137 168.327 113.56C168.729 113.892 169.112 114.21 169.437 114.542C170.317 115.434 170.91 116.538 171.14 117.656C169.341 116.568 164.959 115.616 163.868 115.374C162.433 115.056 160.96 114.83 159.467 114.905C159.219 114.905 158.893 114.981 158.855 115.177C158.836 115.313 158.951 115.419 159.065 115.51C159.64 115.963 160.367 116.235 161.094 116.492C163.983 117.475 167.925 118.669 171.236 118.624C171.236 118.699 171.236 118.775 171.236 118.85C171.274 119.425 171.293 120.014 171.484 120.619C171.829 121.783 172.652 122.78 173.34 123.506C173.934 124.141 174.584 124.761 175.216 125.365C176.957 127.028 178.603 128.615 179.215 130.55C179.311 130.837 179.368 131.139 179.425 131.426C179.54 131.925 179.655 132.439 179.866 132.953C180.229 133.769 180.861 134.54 181.722 135.236C180.612 135.266 179.502 135.432 178.469 135.598L177.761 135.719C175.885 136.052 173.934 136.384 172.135 136.142C172.135 135.629 171.905 134.933 171.867 134.691C171.676 133.618 171.427 132.545 171.025 131.487C170.413 129.809 169.418 128.192 167.887 126.937C167.657 126.756 167.408 126.574 167.102 126.499C166.796 126.423 166.413 126.469 166.222 126.68C166.107 126.816 166.088 126.982 166.088 127.149C166.05 128.842 167.026 130.459 168.097 131.925C168.729 132.787 169.418 133.618 169.992 134.495C170.183 134.782 170.355 135.311 170.604 135.765C169.647 135.447 168.729 134.979 167.791 134.495C167.351 134.268 166.911 134.041 166.452 133.83C165.38 133.331 164.251 132.893 163.16 132.485C163.084 132.454 162.988 132.424 162.912 132.394C162.912 131.336 162.051 129.93 161.63 128.963C161.113 127.738 160.52 126.529 159.888 125.35C159.391 124.398 158.664 123.355 157.382 123.158C157.783 125.002 158.396 126.831 159.199 128.6C159.678 129.643 160.233 130.671 160.96 131.623C159.927 131.185 158.97 130.716 158.09 130.142C157.688 129.885 157.324 129.597 156.941 129.31C156.406 128.902 155.832 128.479 155.2 128.101L155.085 128.222C155.085 128.222 155.066 128.192 155.047 128.177C154.282 127.028 153.612 125.834 152.77 124.715C151.526 123.068 149.766 121.526 147.431 121.027C147.316 120.997 147.163 120.982 147.068 121.057C146.972 121.118 146.991 121.239 147.01 121.329C147.183 121.994 147.642 122.599 148.12 123.158C149.785 125.138 151.775 126.952 153.995 128.57C154.052 128.615 154.224 128.751 154.416 128.902L154.129 129.204C154.684 129.522 155.181 129.9 155.698 130.293C156.1 130.595 156.501 130.897 156.922 131.185C157.707 131.699 158.53 132.137 159.391 132.53C159.219 132.53 159.046 132.53 158.893 132.53C156.808 132.439 154.684 132.364 152.617 132.681C152.196 132.741 151.756 132.847 151.488 133.104C151.411 133.18 151.354 133.271 151.354 133.361C151.354 133.543 151.622 133.648 151.832 133.724C154.416 134.48 157.286 134.132 160.003 133.754C160.558 133.679 161.113 133.603 161.668 133.497C161.898 133.588 162.108 133.664 162.338 133.754C163.39 134.162 164.481 134.586 165.495 135.054C165.935 135.251 166.356 135.477 166.777 135.689C166.834 135.719 166.911 135.749 166.968 135.78C166.146 135.795 165.246 135.931 164.883 135.961C162.051 136.203 159.238 136.596 156.482 137.14C155.755 137.291 155.009 137.442 154.416 137.82C154.282 137.911 154.148 138.032 154.186 138.153C154.205 138.228 154.301 138.289 154.377 138.349C155.143 138.788 156.176 138.742 157.114 138.667C160.003 138.47 162.912 138.259 165.686 137.578C166.184 137.458 168.078 137.095 168.537 136.551C169.36 136.928 170.24 137.246 171.197 137.427C171.924 137.563 172.632 137.624 173.36 137.624C174.948 137.624 176.536 137.337 178.067 137.065L178.756 136.944C180.956 136.566 183.252 136.324 185.147 137.14C185.568 137.291 185.989 137.442 186.41 137.594C183.846 139.09 180.918 140.284 177.512 141.055C163.735 144.199 151.737 137.594 139.605 133.467C134.266 131.653 128.927 130.111 123.493 129.129C124.01 128.555 124.641 128.056 125.292 127.572C126.344 126.786 127.397 126 128.449 125.199C128.755 124.957 129.081 124.715 129.234 124.398C129.387 124.065 129.31 123.702 129.234 123.37C128.985 122.554 128.545 121.783 127.913 121.118C127.148 120.286 125.751 119.606 124.603 119.924C124.469 119.969 124.335 120.014 124.201 120.09C123.952 120.226 123.742 120.407 123.512 120.574C123.149 120.846 122.728 121.057 122.326 121.284C119.264 123.037 117.083 125.547 115.112 128.116C114.748 128.086 114.366 128.071 114.002 128.056C113.964 126.559 114.461 125.048 114.921 123.566C116.069 119.878 117.006 116.13 117.695 112.366C117.848 111.565 118.001 110.718 118.633 110.083C118.92 109.796 119.283 109.554 119.532 109.252C119.647 109.116 119.723 108.98 119.762 108.814C119.915 108.118 119.073 107.544 118.269 107.242C117.198 106.834 116.03 106.607 114.844 106.577C114.5 106.577 114.136 106.577 113.83 106.728C113.753 106.758 113.696 106.803 113.638 106.849C113.447 107 113.294 107.196 113.179 107.408C111.629 109.857 110.519 112.472 109.888 115.162C109.448 117.082 109.218 119.077 107.974 120.77C107.037 120.317 107.343 119.153 106.769 118.412C106.291 117.807 105.219 117.52 105.028 116.825C104.97 116.598 105.028 116.356 104.951 116.13C104.932 116.039 104.894 115.933 104.855 115.857C104.473 115.177 103.286 114.905 102.291 114.92C101.526 114.92 100.722 115.026 100.072 115.344C99.5167 115.616 99.0574 116.054 98.9426 116.553C98.9235 116.644 98.9043 116.734 98.9043 116.825C98.9043 117.218 99.0957 117.581 99.3253 117.928C100.186 119.228 101.488 120.362 102.043 121.768C102.349 122.554 102.406 123.4 102.789 124.171C103.439 125.486 104.951 126.408 105.889 127.617C106.042 127.799 106.157 127.995 106.271 128.192C104.071 128.373 101.851 128.675 99.5932 129.144C84.9739 132.092 70.2972 140.995 55.3143 140.526C55.7353 139.559 56.0988 138.591 56.692 137.684C57.4 136.611 58.3759 135.659 59.3901 134.752C60.0216 134.193 60.6722 133.633 61.0166 132.953C61.3228 132.364 61.3802 131.714 61.5141 131.079C61.916 129.053 63.0067 127.103 64.614 125.501C65.3986 124.715 66.2979 124.02 67.0059 123.189C67.7139 122.357 68.2306 121.375 68.0584 120.392C64.9967 121.163 62.203 122.614 60.079 124.549C58.529 125.955 57.3426 127.617 55.6013 128.887C54.6254 129.613 53.4965 130.187 52.3866 130.761C52.8267 129.613 53.2668 128.449 54.0322 127.421C55.3908 125.562 57.6488 124.201 59.0074 122.327C60.5382 120.211 60.787 117.55 62.7388 115.646C63.5042 114.89 64.5183 114.316 65.2837 113.56C66.0683 112.819 66.6041 111.807 66.2214 110.884C63.3894 111.398 60.8061 112.698 59.0074 114.512C57.6488 115.888 56.7303 117.535 55.1421 118.745C54.1279 119.515 52.865 120.075 51.8126 120.83C48.9231 122.916 47.9281 126.227 45.3448 128.539C45.4405 127.285 45.1918 126.03 44.5603 124.881C43.7184 123.34 42.5511 121.904 41.9388 120.301C41.2499 118.518 41.2499 116.613 40.8098 114.784C40.1975 112.29 38.6858 109.932 36.5235 108.043C35.7581 108.844 35.5859 109.887 35.6624 110.884C35.739 111.882 36.1025 112.85 36.2939 113.832C36.6766 115.857 36.3896 117.974 35.4711 119.893C35.184 120.498 34.8205 121.087 34.7248 121.722C34.5908 122.463 34.8013 123.204 34.9927 123.929C35.2988 125.123 35.5667 126.333 35.4902 127.542C35.4137 128.932 34.897 130.263 34.6482 131.638C34.61 131.865 34.5717 132.107 34.5526 132.333C29.807 128.177 26.5923 122.886 25.1572 117.369C20.7752 100.545 37.6333 84.7347 30.7638 68.5007C29.7305 66.052 28.2954 63.6788 26.7263 61.3662C27.3003 60.8522 27.9701 60.3988 28.7929 60.1116C29.2904 59.9453 29.8453 59.8244 30.4194 59.7034C30.8212 59.6279 31.223 59.5372 31.6249 59.4314C32.1033 59.3104 32.5625 59.1593 33.0026 58.9779C33.9594 59.1593 34.9353 59.3407 35.9494 59.4465C36.5044 59.5069 37.0784 59.5221 37.6525 59.5523C38.7049 59.5976 39.7191 59.643 40.6376 59.8848C41.4987 60.0964 42.3023 60.4592 43.106 60.8825C43.106 60.9127 43.106 60.9429 43.106 60.9731C43.2208 62.3033 43.6035 63.6184 43.9671 64.9183C44.2159 65.795 44.4646 66.6868 44.8856 67.5333C45.0961 67.9716 45.364 68.3949 45.7658 68.7274C45.8806 68.8181 45.9954 68.8937 46.1485 68.9239C46.4547 68.9844 46.7609 68.8181 46.8948 68.5914C47.0287 68.3646 47.0287 68.1077 47.0096 67.8658C46.8565 65.8857 46.1103 63.9358 44.8282 62.2428C44.6368 61.9859 44.4455 61.744 44.2733 61.4871C45.1152 61.9103 45.9763 62.3335 46.9522 62.6056C48.2534 62.9835 49.5929 63.0742 50.8941 63.1649C51.6595 63.2254 52.4057 63.2707 53.1137 63.3765C53.86 63.4823 54.702 63.7091 55.41 64.0567C54.9699 64.8125 54.6254 66.4147 54.4915 66.7926C54.1088 67.9112 53.8409 69.0599 53.7643 70.2238C53.7452 70.6773 53.7643 71.1308 53.8983 71.554C53.9557 71.69 54.0514 71.8563 54.2427 71.8714C54.3384 71.8714 54.4341 71.8412 54.5106 71.811C55.5248 71.3424 55.9266 70.3448 56.1562 69.4378C56.2519 69.0297 56.6538 66.3845 56.5007 64.8125C56.7303 65.0543 56.8834 65.3113 56.9599 65.6136L57.2278 65.5683C57.7636 65.9461 58.2994 66.324 58.8735 66.6415C60.9209 67.7449 63.0258 68.8785 65.4368 69.3925C65.743 69.4529 66.0683 69.4529 66.3745 69.3774C67.2547 69.1204 67.1207 68.4251 66.6806 68.0472C66.3745 67.7902 65.9343 67.6391 65.5325 67.503C64.3461 67.0949 63.1597 66.7019 61.9542 66.2938C60.8826 65.931 59.7728 65.6136 58.663 65.3113C58.1272 63.3765 55.6205 62.3487 53.439 62.0312C52.6354 61.9103 51.8317 61.8498 51.0471 61.8045C49.8034 61.7138 48.6361 61.6382 47.5454 61.3208C47.2966 61.2452 47.0479 61.1545 46.7991 61.0638C47.3923 61.0638 48.0046 61.0638 48.5978 61.0638C50.4348 61.0336 52.2718 60.9127 54.0322 60.5046C54.6637 60.3685 55.3143 60.172 55.7544 59.7941C55.1038 59.4465 54.281 59.3709 53.4965 59.3709C52.2144 59.3407 50.9515 59.4465 49.6694 59.5523C48.1195 59.6732 46.5504 59.8244 45.1344 60.3232C44.9813 60.2476 44.8282 60.172 44.6751 60.0964C43.5844 59.5221 42.4554 58.9326 41.1351 58.6151C40.0061 58.3431 38.858 58.2826 37.729 58.2221C37.1932 58.1919 36.6766 58.1768 36.1408 58.1163C35.7964 58.0861 35.4519 58.0407 35.0884 57.9803C36.313 57.2699 37.4037 56.4234 38.4944 55.592C39.1833 55.063 39.8913 54.5188 40.6184 54.02C41.3647 53.5061 42.3789 52.8864 43.5079 52.5992C44.1011 52.448 44.7325 52.3875 45.4022 52.3271C45.8424 52.2817 46.3016 52.2364 46.7226 52.1759C46.9331 52.1457 47.1436 52.1004 47.354 52.055C48.0429 52.4782 49.2867 52.8108 49.7459 52.9619C52.8076 54.0049 56.1754 54.4886 59.5049 54.3526C61.0931 54.277 62.7962 54.02 63.8486 53.0677C61.8585 52.191 59.5623 51.919 57.3044 51.6469C55.1421 51.3899 52.9798 51.133 50.7984 50.9365C50.7218 50.9365 50.6262 50.9213 50.5305 50.9062C50.9323 50.6946 51.315 50.4528 51.6595 50.1958C52.1187 49.8633 52.5206 49.5005 52.9224 49.1528C53.4008 48.7296 53.8409 48.3366 54.3575 48.0041C54.9699 47.5959 55.6779 47.2785 56.4241 46.9309C57.0365 46.6588 57.6679 46.3716 58.242 46.0239C58.5864 46.0239 58.9883 45.9484 59.2944 45.8425C61.2271 45.1775 63.0832 44.3915 64.8628 43.4845C66.451 42.6834 67.9627 41.8067 69.3978 40.8544C70.5651 40.0684 72.4786 39.0557 73.0144 37.8767C73.7798 36.214 71.4262 36.9698 70.3929 37.3476C68.575 38.0278 66.9102 38.9499 65.2646 39.8719C62.7962 41.2323 60.3086 42.6229 58.2803 44.3915L58.1272 44.2705C57.7253 44.6182 57.247 44.8903 56.7303 45.1623C56.9217 44.9356 57.0747 44.7391 57.1513 44.6484C59.1796 42.366 60.9401 39.9324 62.3561 37.3779C62.5474 37.0151 62.7196 36.5314 62.3178 36.2896C62.0882 36.1535 61.7629 36.1838 61.495 36.2291C60.6148 36.4256 59.8876 36.9244 59.2753 37.4535C57.2852 39.1766 56.0797 41.3532 54.9316 43.4845C54.6828 43.938 53.6687 45.6763 53.8983 46.5227C53.6687 46.6437 53.439 46.7797 53.2286 46.9157C52.6354 47.3087 52.1187 47.7622 51.6212 48.2006C51.2385 48.5482 50.8749 48.8656 50.4731 49.1528C49.4206 49.9237 48.0812 50.483 46.6843 50.74C47.909 49.2435 48.7701 45.7065 48.9805 44.8298C49.2676 43.681 49.4398 42.4869 49.2102 41.3381C49.1719 41.1416 49.0571 40.8998 48.8083 40.8847C48.6361 40.8847 48.5022 40.9754 48.4065 41.0812C47.8898 41.5649 47.6028 42.1695 47.3349 42.759C46.3207 45.117 45.1344 48.3215 45.4597 50.9062C45.364 50.9062 45.2683 50.9213 45.1726 50.9365C44.4455 51.012 43.7184 51.0876 42.9721 51.269C41.5369 51.6318 40.3505 52.3573 39.4703 52.9619C38.7241 53.4759 37.9778 54.0351 37.2698 54.5793C35.2988 56.0908 33.4427 57.5117 31.0508 58.1466C30.6873 58.2372 30.3237 58.3128 29.9601 58.3884C29.3478 58.5093 28.6972 58.6454 28.0657 58.857C27.2429 59.1442 26.4966 59.5674 25.8078 60.0964C25.5207 59.6732 25.2146 59.2651 24.9276 58.857C24.8319 58.5547 24.7171 58.2524 24.6214 57.9652L24.4109 57.421C23.8368 55.9699 23.2628 54.4735 23.4159 53.0375C24.0665 52.9922 24.9084 52.7654 25.2337 52.705C26.5732 52.4631 27.9126 52.1759 29.1947 51.798C31.2613 51.1783 33.2131 50.2714 34.6674 48.9563C34.8779 48.7598 35.0884 48.5482 35.1649 48.3064C35.2414 48.0494 35.1458 47.7622 34.8587 47.6262C34.6865 47.5506 34.4569 47.5506 34.2464 47.5506C32.1033 47.6564 30.1515 48.5482 28.391 49.5307C27.3577 50.1051 26.3627 50.7097 25.2911 51.2237C24.9467 51.3899 24.2961 51.5864 23.722 51.8132C24.0473 51.0272 24.564 50.2865 25.0806 49.5005C25.3294 49.1377 25.5782 48.7598 25.8078 48.3971C26.3627 47.5204 26.8028 46.5983 27.2429 45.7065C27.2812 45.6309 27.3195 45.5705 27.3386 45.4949C28.6589 45.4193 30.3811 44.6182 31.5675 44.2101C33.06 43.6961 34.5334 43.152 35.9877 42.5474C37.1358 42.0788 38.4179 41.4137 38.5518 40.401C36.2556 40.8696 33.9977 41.5044 31.8354 42.2753C30.5533 42.7288 29.3095 43.2578 28.1614 43.9078C28.6207 43.0613 29.1373 42.2602 29.807 41.5346C30.1132 41.2021 30.4385 40.8847 30.7638 40.5672C31.2422 40.1138 31.7206 39.6301 32.1415 39.101L31.9693 39.0255C31.9693 39.0255 32.0076 39.0103 32.0267 38.9952C33.4236 38.2999 34.8779 37.6802 36.2173 36.9244C38.1883 35.821 39.987 34.3094 40.4271 32.42C40.4462 32.3293 40.4654 32.2084 40.3697 32.1479C40.274 32.0875 40.1401 32.1026 40.0252 32.1328C39.2024 32.3293 38.4753 32.7374 37.8056 33.1607C35.4328 34.642 33.3088 36.3349 31.4527 38.2243C31.3953 38.2848 31.2422 38.4208 31.07 38.5871L30.6681 38.3906C30.3046 38.8441 29.8644 39.2673 29.4052 39.7208C29.0608 40.0684 28.6972 40.401 28.391 40.7637C27.7978 41.4137 27.3195 42.109 26.8985 42.8194C26.8985 42.6834 26.8985 42.5474 26.8793 42.4264C26.8219 40.7637 26.7454 39.101 26.1905 37.4988C26.0757 37.1663 25.9226 36.8337 25.559 36.6372C25.4633 36.5768 25.3485 36.5465 25.2146 36.5616C24.985 36.5919 24.8701 36.7884 24.8127 36.9698C24.0665 39.0708 24.7362 41.2928 25.4251 43.4089C25.559 43.8473 25.7121 44.2705 25.8843 44.6938C25.7886 44.8752 25.693 45.0565 25.6164 45.2379C25.1954 46.0995 24.7553 46.9913 24.2387 47.8227C24.0091 48.1854 23.7794 48.5331 23.5307 48.8808C23.4924 48.9261 23.4541 48.9866 23.435 49.0319C23.3393 48.3819 23.1097 47.6866 23.0523 47.4146C22.5165 45.2077 21.8085 43.0311 20.89 40.8998C20.6413 40.3405 20.3734 39.7661 19.8759 39.3278C19.761 39.222 19.5888 39.1313 19.4357 39.1766C19.3401 39.2069 19.2635 39.2673 19.2061 39.3429C18.7277 39.9777 18.8617 40.7789 19.0148 41.5195C19.4932 43.7717 19.9907 46.0542 21.0814 48.1854C21.2727 48.5633 21.8851 50.0295 22.6122 50.347C22.2104 51.0272 21.8851 51.7527 21.7128 52.5236C21.598 53.098 21.5789 53.6724 21.6363 54.2468C21.6363 54.3374 21.6554 54.4281 21.6746 54.5188C17.0821 48.2157 -0.866719 25.9959 0.0326364 18.3928L0.0326267 215H248.925V18.2266V0Z" fill="#010025"/>
</svg>
