<svg preserveAspectRatio="none" width="100%" height="100%" overflow="visible" style="display: block;" viewBox="0 0 134 68" fill="none" xmlns="http://www.w3.org/2000/svg">
<path id="Vector" d="M68.3894 59.4181C68.1034 59.4754 67.8144 59.4725 67.5216 59.4793C67.177 59.4871 66.8314 59.4871 66.4868 59.4735C65.8865 59.4511 65.288 59.3928 64.6965 59.2927C62.7333 58.9573 56.8263 58.5666 53.4428 56.6497C50.0593 54.7328 46.4698 51.8846 45.1988 50.6744C43.9278 49.4642 43.224 49.1376 42.812 48.985C42.401 48.8324 42.4157 48.6399 42.3795 49.4526C42.3444 50.2652 41.8456 51.2334 43.3284 54.3731C44.8113 57.5129 45.5844 58.8281 47.4411 60.2803C49.2979 61.7326 51.8653 62.9729 51.6163 65.0949C51.3674 67.2169 46.4073 65.7773 44.0274 62.8611C41.6474 59.945 40.6194 56.9666 38.8994 55.0127C37.1793 53.0579 35.4036 51.4764 36.0206 49.1308C36.6375 46.7852 36.7312 46.7483 36.7215 46.1894C36.7117 45.6314 36.9645 44.9704 37.479 44.4115C37.9935 43.8535 36.5536 42.0474 36.0674 40.6049C35.5813 39.1623 35.5071 39.0408 34.6002 37.8131C33.6933 36.5845 31.6931 35.1886 30.9365 34.2952C30.179 33.4019 26.7184 29.1949 25.0735 23.9331C23.4286 18.6714 23.6277 15.4451 21.5338 11.0271C19.4398 6.60909 16.9231 3.85427 13.7329 2.26593C10.5427 0.677587 6.75407 1.00031 2.86586 1.86836C-1.02234 2.73738 -0.206237 1.99861 0.990585 1.32886C2.18741 0.659117 6.44852 -0.9788 12.0568 0.807843C17.6651 2.59449 23.4412 3.50724 27.1791 6.42925C30.918 9.35126 35.0678 14.8609 44.1152 18.0998C53.1627 21.3387 51.2434 18.6208 57.0264 20.284C62.8085 21.9472 65.3515 20.8799 68.3924 19.4646C71.4332 18.0502 73.4832 16.9916 74.6605 16.7409C75.8378 16.4891 76.0067 16.4988 74.8382 17.988C73.6697 19.4772 71.2302 21.5807 73.8757 20.2218C76.5212 18.8628 80.4748 17.467 83.2033 15.624C85.9327 13.7809 91.5966 10.3 100.083 8.47641C108.57 6.65186 117.468 7.93692 117.879 8.28395C118.29 8.63097 116.857 8.03607 113.891 8.01079C110.925 7.98552 107.485 7.70071 102.538 8.79233C97.5905 9.88395 95.0358 10.5294 90.6244 12.9119C86.2129 15.2944 84.0692 17.3542 80.7296 19.1166C77.39 20.8789 74.8978 20.9411 73.5389 22.8395C72.181 24.738 72.3548 24.4648 73.3768 25.5944C74.3989 26.7239 76.4675 29.8131 78.7108 32.1956C80.9541 34.5781 85.3158 38.0027 88.6553 41.1298C91.9949 44.2569 94.7869 43.5619 97.3045 43.314C99.8221 43.0661 105.63 42.5947 109.218 43.3889C112.808 44.183 113.718 42.6695 117.948 42.8678C122.178 43.0661 124.596 42.0241 128.035 40.5602C131.474 39.0962 134.765 35.001 133.843 38.2525C132.92 41.504 126.989 44.9782 124.346 47.8817C121.705 50.7852 114.526 56.6925 107.447 58.5782C100.369 60.464 90.1001 59.2733 86.5604 59.2733C83.0207 59.2733 80.6593 60.0179 79.3697 61.1348C78.0802 62.2516 77.2943 62.6793 74.8646 63.3685C72.4348 64.0577 70.9764 63.8342 67.6866 65.546C64.3968 67.2587 60.9947 67.7982 57.6854 67.9654C54.377 68.1326 53.0963 67.6952 53.0865 66.6249C53.0767 65.5547 53.8528 63.9168 56.7033 62.5112C59.5538 61.1056 60.5544 60.9199 63.8999 60.4912C67.2463 60.0635 67.5636 60.119 68.5544 59.5697C68.775 59.4473 68.9966 59.3287 69.2172 59.2062C69.2914 59.1654 69.433 59.1148 69.4798 59.0409C69.3939 59.0283 69.269 59.0964 69.1899 59.1236C68.9761 59.1984 68.776 59.3083 68.5593 59.3734C68.5027 59.3899 68.4451 59.4045 68.3885 59.4162L68.3894 59.4181Z" fill="#010025"/>
</svg>
